/vscmnt/brussel_pixiu_data/_data_brussel/112/vsc11236/PredSimResults/SUBJ11mtu3D/weighted-LRposFixed/expIG/worker_04.mot
version=1
nRows=4
nColumns=50
inDegrees=yes
endheader
                time	         pelvis_tilt	         pelvis_list	     pelvis_rotation	           pelvis_tx	           pelvis_ty	           pelvis_tz	       hip_flexion_r	     hip_adduction_r	      hip_rotation_r	        knee_angle_r	       ankle_angle_r	         mtp_angle_r	       hip_flexion_l	     hip_adduction_l	      hip_rotation_l	        knee_angle_l	       ankle_angle_l	         mtp_angle_l	    lumbar_extension	      lumbar_bending	     lumbar_rotation	 ercspn_r/activation	 intobl_r/activation	 extobl_r/activation	    abd_r/activation	    add_r/activation	hamstrings_r/activation	bifemsh_r/activation	glut_max_r/activation	iliopsoas_r/activation	rect_fem_r/activation	  vasti_r/activation	gastroc_r/activation	 soleus_r/activation	tib_ant_r/activation	 ercspn_l/activation	 intobl_l/activation	 extobl_l/activation	    abd_l/activation	    add_l/activation	hamstrings_l/activation	bifemsh_l/activation	glut_max_l/activation	iliopsoas_l/activation	rect_fem_l/activation	  vasti_l/activation	gastroc_l/activation	 soleus_l/activation	tib_ant_l/activation	
          1.42033415	         -5.93365003	         -5.13896836	          8.27324890	          1.43453749	          0.94207071	         -0.01771194	         30.96233130	          1.54790623	         -4.39862000	         -4.30984353	          5.46634566	          0.20743923	        -11.76097868	         -5.57820362	          4.74199658	         -7.04190091	         12.72618791	         26.17534103	         -3.90403584	          3.12737019	         -2.05159944	          0.09047113	          0.15162303	          0.02893077	          0.01236721	          0.10227640	          0.04609996	          0.19545340	          0.01222588	          0.09004016	          0.01412648	          0.01000000	          0.01426255	          0.00999999	          0.28190918	          0.02697788	          0.00999999	          0.01000000	          0.05472394	          0.02697332	          0.02892299	          0.13827106	          0.05472402	          0.44501190	          0.01000002	          0.01000001	          0.36099643	          0.26429435	          0.01059484	
          1.43453749	         -6.07439062	         -4.95979253	          8.31672759	          1.45217797	          0.93979626	         -0.01692797	         31.04383607	          1.56363152	         -4.42333776	         -5.79795558	          5.00994784	          0.21210610	        -12.05394036	         -5.47148905	          4.35802456	         -8.24235594	         12.27643458	         28.09922165	         -3.60140484	          3.38526230	         -2.23845686	          0.07315396	          0.12260078	          0.02339310	          0.00999999	          0.15015044	          0.04598937	          0.15804147	          0.05947083	          0.07280548	          0.01142252	          0.00999999	          0.02203766	          0.01529483	          0.29446369	          0.06788710	          0.00999999	          0.01000000	          0.04424917	          0.05363593	          0.02338682	          0.11180445	          0.04424924	          0.45367063	          0.01000002	          0.01000000	          0.33289367	          0.25188972	          0.00999999	
          1.44874083	         -6.19108725	         -4.77022085	          8.30732656	          1.47025093	          0.93783294	         -0.01605967	         30.91306342	          1.56434464	         -4.41853409	         -7.21826409	          4.55058549	          0.18590979	        -12.18458126	         -5.34233023	          3.95178189	         -9.81754214	         11.70463248	         30.12344771	         -3.28205120	          3.64729327	         -2.40593938	          0.07090525	          0.09913364	          0.01891540	          0.05821880	          0.14182664	          0.05471060	          0.12779061	          0.07916966	          0.05886970	          0.01000000	          0.00999999	          0.01781941	          0.01236723	          0.33675393	          0.07844635	          0.00999999	          0.01000000	          0.03577939	          0.04653093	          0.02435478	          0.09040385	          0.03577944	          0.44256644	          0.01000003	          0.01339392	          0.30172068	          0.23476955	          0.00999999	
          1.46294417	         -6.28552845	         -4.57346267	          8.24729250	          1.48844965	          0.93645044	         -0.01508680	         30.60640955	          1.56762341	         -4.44238095	         -8.35400481	          3.93249763	          0.15644256	        -12.05111928	         -5.19234656	          3.53341074	        -11.88778396	         10.94603888	         32.25682404	         -2.97526807	          3.91203037	         -2.54699310	          0.08102939	          0.08015836	          0.01529478	          0.10850623	          0.16244047	          0.05282548	          0.10333008	          0.10435328	          0.04760139	          0.01000000	          0.00999999	          0.01440858	          0.01000001	          0.36752299	          0.10500400	          0.00999999	          0.01000000	          0.02893082	          0.05286944	          0.02483786	          0.07309955	          0.02893086	          0.42300687	          0.01000004	          0.01236729	          0.24396801	          0.19481372	          0.00999999	
